<svg width="4486" height="5236" viewBox="0 0 4486 5236" fill="none" xmlns="http://www.w3.org/2000/svg">
<g clip-path="url(#clip0)">
<rect width="4486" height="5236" fill="#323447"/>
<path d="M1493.65 60.9358L1739.08 74.4427L1645.54 301.754L1493.65 60.9358Z" stroke="white" stroke-opacity="0.512"/>
<path d="M1044.84 249.337L1188.83 249.752L1127.17 379.875L1044.84 249.337Z" stroke="white" stroke-opacity="0.512"/>
<path d="M1440.59 951.219L1652.01 970.589L1578.41 1169.74L1440.59 951.219Z" stroke="white" stroke-opacity="0.512"/>
<path d="M683.353 953.068L816.261 973.505L777.447 1102.25L683.353 953.068Z" stroke="white" stroke-opacity="0.512"/>
<path d="M891.023 478.575L1090.58 500.677L1024.56 690.292L891.023 478.575Z" stroke="white" stroke-opacity="0.512"/>
<path d="M1360.41 338.287L1407.48 342.08L1390.62 386.194L1360.41 338.287Z" stroke="white" stroke-opacity="0.512"/>
<path d="M380.023 406.575L579.585 428.677L513.559 618.292L380.023 406.575Z" stroke="white" stroke-opacity="0.512"/>
<path d="M1228.8 705.027L1292.52 712.947L1272.22 773.864L1228.8 705.027Z" stroke="white" stroke-opacity="0.512"/>
<path d="M1802.65 749.936L2048.08 763.443L1954.54 990.754L1802.65 749.936Z" stroke="white" stroke-opacity="0.512"/>
<path d="M-10.3508 126.936L235.084 140.443L141.54 367.754L-10.3508 126.936Z" stroke="white" stroke-opacity="0.512"/>
<path d="M220.649 743.936L466.084 757.443L372.54 984.754L220.649 743.936Z" stroke="white" stroke-opacity="0.512"/>
<path d="M714.411 802.686L819.487 811.215L781.918 909.715L714.411 802.686Z" stroke="white" stroke-opacity="0.512"/>
<path d="M1111.65 887.936L1357.08 901.443L1263.54 1128.75L1111.65 887.936Z" stroke="white" stroke-opacity="0.512"/>
<path d="M1336.65 531.936L1582.08 545.443L1488.54 772.754L1336.65 531.936Z" stroke="white" stroke-opacity="0.512"/>
<path d="M949.914 745.294L998.174 746.706L978.658 790.866L949.914 745.294Z" stroke="white" stroke-opacity="0.512"/>
<path d="M437.649 279.936L683.084 293.443L589.54 520.754L437.649 279.936Z" stroke="white" stroke-opacity="0.512"/>
<path d="M595.552 593.37L734.898 591.156L672.869 715.954L595.552 593.37Z" stroke="white" stroke-opacity="0.512"/>
<path d="M1009.69 107.407L1103.34 106.069L1061.79 190.002L1009.69 107.407Z" stroke="white" stroke-opacity="0.512"/>
<path d="M2315.36 1260.79L2070.03 1245.5L2165.22 1018.87L2315.36 1260.79Z" stroke="white" stroke-opacity="0.512"/>
<path d="M2765.52 1075.64L2621.54 1074.18L2684.13 944.51L2765.52 1075.64Z" stroke="white" stroke-opacity="0.512"/>
<path d="M2374.87 370.91L2163.59 350.01L2238.63 151.401L2374.87 370.91Z" stroke="white" stroke-opacity="0.512"/>
<path d="M3132.09 374.546L2999.34 353.147L3039.08 224.685L3132.09 374.546Z" stroke="white" stroke-opacity="0.512"/>
<path d="M2920.99 847.522L2721.6 823.976L2788.99 634.843L2920.99 847.522Z" stroke="white" stroke-opacity="0.512"/>
<path d="M2450.61 984.407L2403.56 980.273L2420.74 936.283L2450.61 984.407Z" stroke="white" stroke-opacity="0.512"/>
<path d="M3431.46 923.221L3232.06 899.675L3299.46 710.542L3431.46 923.221Z" stroke="white" stroke-opacity="0.512"/>
<path d="M2584.87 618.63L2521.2 610.249L2541.95 549.48L2584.87 618.63Z" stroke="white" stroke-opacity="0.512"/>
<path d="M2011.36 569.566L1766.03 554.282L1861.21 327.655L2011.36 569.566Z" stroke="white" stroke-opacity="0.512"/>
<path d="M3819.8 1205.68L3574.47 1190.4L3669.65 963.769L3819.8 1205.68Z" stroke="white" stroke-opacity="0.512"/>
<path d="M3593.27 587.023L3347.94 571.739L3443.13 345.112L3593.27 587.023Z" stroke="white" stroke-opacity="0.512"/>
<path d="M3099.95 524.699L2994.94 515.409L3033.22 417.183L3099.95 524.699Z" stroke="white" stroke-opacity="0.512"/>
<path d="M2703.34 436.574L2458.01 421.29L2553.19 194.663L2703.34 436.574Z" stroke="white" stroke-opacity="0.512"/>
<path d="M2475.77 790.936L2230.43 775.652L2325.62 549.024L2475.77 790.936Z" stroke="white" stroke-opacity="0.512"/>
<path d="M2864.04 580.384L2815.79 578.622L2835.62 534.604L2864.04 580.384Z" stroke="white" stroke-opacity="0.512"/>
<path d="M3372.92 1049.44L3127.59 1034.16L3222.77 807.528L3372.92 1049.44Z" stroke="white" stroke-opacity="0.512"/>
<path d="M3217.29 734.87L3077.93 736.075L3140.86 611.73L3217.29 734.87Z" stroke="white" stroke-opacity="0.512"/>
<path d="M2799.64 1217.82L2705.98 1218.48L2748.14 1134.85L2799.64 1217.82Z" stroke="white" stroke-opacity="0.512"/>
<path d="M3789.36 953.786L3544.03 938.502L3639.22 711.875L3789.36 953.786Z" stroke="white" stroke-opacity="0.512"/>
<path d="M4239.52 768.64L4095.54 767.183L4158.13 637.51L4239.52 768.64Z" stroke="white" stroke-opacity="0.512"/>
<path d="M3848.87 63.9103L3637.59 43.0103L3712.63 -155.599L3848.87 63.9103Z" stroke="white" stroke-opacity="0.512"/>
<path d="M4606.09 67.5459L4473.34 46.1468L4513.08 -82.3153L4606.09 67.5459Z" stroke="white" stroke-opacity="0.512"/>
<path d="M4394.99 540.522L4195.6 516.976L4262.99 327.843L4394.99 540.522Z" stroke="white" stroke-opacity="0.512"/>
<path d="M3924.61 677.407L3877.56 673.273L3894.74 629.283L3924.61 677.407Z" stroke="white" stroke-opacity="0.512"/>
<path d="M4058.87 311.63L3995.2 303.249L4015.95 242.48L4058.87 311.63Z" stroke="white" stroke-opacity="0.512"/>
<path d="M3485.36 262.566L3240.03 247.282L3335.21 20.655L3485.36 262.566Z" stroke="white" stroke-opacity="0.512"/>
<path d="M4573.95 217.699L4468.94 208.409L4507.22 110.183L4573.95 217.699Z" stroke="white" stroke-opacity="0.512"/>
<path d="M4177.34 129.574L3932.01 114.29L4027.19 -112.337L4177.34 129.574Z" stroke="white" stroke-opacity="0.512"/>
<path d="M3949.77 483.936L3704.43 468.652L3799.62 242.024L3949.77 483.936Z" stroke="white" stroke-opacity="0.512"/>
<path d="M4338.04 273.384L4289.79 271.622L4309.62 227.604L4338.04 273.384Z" stroke="white" stroke-opacity="0.512"/>
<path d="M4273.64 910.821L4179.98 911.481L4222.14 827.851L4273.64 910.821Z" stroke="white" stroke-opacity="0.512"/>
<path d="M1598.65 1071.94L1844.08 1085.44L1750.54 1312.75L1598.65 1071.94Z" stroke="white" stroke-opacity="0.512"/>
<path d="M1149.84 1260.34L1293.83 1260.75L1232.17 1390.87L1149.84 1260.34Z" stroke="white" stroke-opacity="0.512"/>
<path d="M1545.59 1962.22L1757.01 1981.59L1683.41 2180.74L1545.59 1962.22Z" stroke="white" stroke-opacity="0.512"/>
<path d="M788.353 1964.07L921.261 1984.5L882.447 2113.25L788.353 1964.07Z" stroke="white" stroke-opacity="0.512"/>
<path d="M996.023 1489.57L1195.58 1511.68L1129.56 1701.29L996.023 1489.57Z" stroke="white" stroke-opacity="0.512"/>
<path d="M1465.41 1349.29L1512.48 1353.08L1495.62 1397.19L1465.41 1349.29Z" stroke="white" stroke-opacity="0.512"/>
<path d="M485.023 1417.57L684.585 1439.68L618.559 1629.29L485.023 1417.57Z" stroke="white" stroke-opacity="0.512"/>
<path d="M1333.8 1716.03L1397.52 1723.95L1377.22 1784.86L1333.8 1716.03Z" stroke="white" stroke-opacity="0.512"/>
<path d="M1907.65 1760.94L2153.08 1774.44L2059.54 2001.75L1907.65 1760.94Z" stroke="white" stroke-opacity="0.512"/>
<path d="M94.6492 1137.94L340.084 1151.44L246.54 1378.75L94.6492 1137.94Z" stroke="white" stroke-opacity="0.512"/>
<path d="M325.649 1754.94L571.084 1768.44L477.54 1995.75L325.649 1754.94Z" stroke="white" stroke-opacity="0.512"/>
<path d="M819.411 1813.69L924.487 1822.22L886.918 1920.72L819.411 1813.69Z" stroke="white" stroke-opacity="0.512"/>
<path d="M1216.65 1898.94L1462.08 1912.44L1368.54 2139.75L1216.65 1898.94Z" stroke="white" stroke-opacity="0.512"/>
<path d="M1441.65 1542.94L1687.08 1556.44L1593.54 1783.75L1441.65 1542.94Z" stroke="white" stroke-opacity="0.512"/>
<path d="M1054.91 1756.29L1103.17 1757.71L1083.66 1801.87L1054.91 1756.29Z" stroke="white" stroke-opacity="0.512"/>
<path d="M542.649 1290.94L788.084 1304.44L694.54 1531.75L542.649 1290.94Z" stroke="white" stroke-opacity="0.512"/>
<path d="M700.552 1604.37L839.898 1602.16L777.869 1726.95L700.552 1604.37Z" stroke="white" stroke-opacity="0.512"/>
<path d="M1114.69 1118.41L1208.34 1117.07L1166.79 1201L1114.69 1118.41Z" stroke="white" stroke-opacity="0.512"/>
<path d="M2420.36 2271.79L2175.03 2256.5L2270.22 2029.87L2420.36 2271.79Z" stroke="white" stroke-opacity="0.512"/>
<path d="M2870.52 2086.64L2726.54 2085.18L2789.13 1955.51L2870.52 2086.64Z" stroke="white" stroke-opacity="0.512"/>
<path d="M2479.87 1381.91L2268.59 1361.01L2343.63 1162.4L2479.87 1381.91Z" stroke="white" stroke-opacity="0.512"/>
<path d="M3237.09 1385.55L3104.34 1364.15L3144.08 1235.68L3237.09 1385.55Z" stroke="white" stroke-opacity="0.512"/>
<path d="M3025.99 1858.52L2826.6 1834.98L2893.99 1645.84L3025.99 1858.52Z" stroke="white" stroke-opacity="0.512"/>
<path d="M2555.61 1995.41L2508.56 1991.27L2525.74 1947.28L2555.61 1995.41Z" stroke="white" stroke-opacity="0.512"/>
<path d="M3536.46 1934.22L3337.06 1910.67L3404.46 1721.54L3536.46 1934.22Z" stroke="white" stroke-opacity="0.512"/>
<path d="M2689.87 1629.63L2626.2 1621.25L2646.95 1560.48L2689.87 1629.63Z" stroke="white" stroke-opacity="0.512"/>
<path d="M2116.36 1580.57L1871.03 1565.28L1966.21 1338.66L2116.36 1580.57Z" stroke="white" stroke-opacity="0.512"/>
<path d="M3924.8 2216.68L3679.47 2201.4L3774.65 1974.77L3924.8 2216.68Z" stroke="white" stroke-opacity="0.512"/>
<path d="M3698.27 1598.02L3452.94 1582.74L3548.13 1356.11L3698.27 1598.02Z" stroke="white" stroke-opacity="0.512"/>
<path d="M3204.95 1535.7L3099.94 1526.41L3138.22 1428.18L3204.95 1535.7Z" stroke="white" stroke-opacity="0.512"/>
<path d="M2808.34 1447.57L2563.01 1432.29L2658.19 1205.66L2808.34 1447.57Z" stroke="white" stroke-opacity="0.512"/>
<path d="M2580.77 1801.94L2335.43 1786.65L2430.62 1560.02L2580.77 1801.94Z" stroke="white" stroke-opacity="0.512"/>
<path d="M2969.04 1591.38L2920.79 1589.62L2940.62 1545.6L2969.04 1591.38Z" stroke="white" stroke-opacity="0.512"/>
<path d="M3477.92 2060.44L3232.59 2045.16L3327.77 1818.53L3477.92 2060.44Z" stroke="white" stroke-opacity="0.512"/>
<path d="M3322.29 1745.87L3182.93 1747.08L3245.86 1622.73L3322.29 1745.87Z" stroke="white" stroke-opacity="0.512"/>
<path d="M2904.64 2228.82L2810.98 2229.48L2853.14 2145.85L2904.64 2228.82Z" stroke="white" stroke-opacity="0.512"/>
<path d="M3894.36 1964.79L3649.03 1949.5L3744.22 1722.87L3894.36 1964.79Z" stroke="white" stroke-opacity="0.512"/>
<path d="M4344.52 1779.64L4200.54 1778.18L4263.13 1648.51L4344.52 1779.64Z" stroke="white" stroke-opacity="0.512"/>
<path d="M3953.87 1074.91L3742.59 1054.01L3817.63 855.402L3953.87 1074.91Z" stroke="white" stroke-opacity="0.512"/>
<path d="M4499.99 1551.52L4300.6 1527.98L4367.99 1338.84L4499.99 1551.52Z" stroke="white" stroke-opacity="0.512"/>
<path d="M4029.61 1688.41L3982.56 1684.27L3999.74 1640.28L4029.61 1688.41Z" stroke="white" stroke-opacity="0.512"/>
<path d="M4163.87 1322.63L4100.2 1314.25L4120.95 1253.48L4163.87 1322.63Z" stroke="white" stroke-opacity="0.512"/>
<path d="M3590.36 1273.57L3345.03 1258.28L3440.21 1031.66L3590.36 1273.57Z" stroke="white" stroke-opacity="0.512"/>
<path d="M4282.34 1140.57L4037.01 1125.29L4132.19 898.663L4282.34 1140.57Z" stroke="white" stroke-opacity="0.512"/>
<path d="M4054.77 1494.94L3809.43 1479.65L3904.62 1253.02L4054.77 1494.94Z" stroke="white" stroke-opacity="0.512"/>
<path d="M4443.04 1284.38L4394.79 1282.62L4414.62 1238.6L4443.04 1284.38Z" stroke="white" stroke-opacity="0.512"/>
<path d="M4378.64 1921.82L4284.98 1922.48L4327.14 1838.85L4378.64 1921.82Z" stroke="white" stroke-opacity="0.512"/>
<path d="M1337.65 1951.94L1583.08 1965.44L1489.54 2192.75L1337.65 1951.94Z" stroke="white" stroke-opacity="0.512"/>
<path d="M888.839 2140.34L1032.83 2140.75L971.173 2270.87L888.839 2140.34Z" stroke="white" stroke-opacity="0.512"/>
<path d="M1284.59 2842.22L1496.01 2861.59L1422.41 3060.74L1284.59 2842.22Z" stroke="white" stroke-opacity="0.512"/>
<path d="M527.353 2844.07L660.261 2864.5L621.447 2993.25L527.353 2844.07Z" stroke="white" stroke-opacity="0.512"/>
<path d="M735.023 2369.57L934.585 2391.68L868.559 2581.29L735.023 2369.57Z" stroke="white" stroke-opacity="0.512"/>
<path d="M1204.41 2229.29L1251.48 2233.08L1234.62 2277.19L1204.41 2229.29Z" stroke="white" stroke-opacity="0.512"/>
<path d="M224.023 2297.57L423.585 2319.68L357.559 2509.29L224.023 2297.57Z" stroke="white" stroke-opacity="0.512"/>
<path d="M1072.8 2596.03L1136.52 2603.95L1116.22 2664.86L1072.8 2596.03Z" stroke="white" stroke-opacity="0.512"/>
<path d="M1646.65 2640.94L1892.08 2654.44L1798.54 2881.75L1646.65 2640.94Z" stroke="white" stroke-opacity="0.512"/>
<path d="M-166.351 2017.94L79.0843 2031.44L-14.4601 2258.75L-166.351 2017.94Z" stroke="white" stroke-opacity="0.512"/>
<path d="M64.6492 2634.94L310.084 2648.44L216.54 2875.75L64.6492 2634.94Z" stroke="white" stroke-opacity="0.512"/>
<path d="M558.411 2693.69L663.487 2702.22L625.918 2800.72L558.411 2693.69Z" stroke="white" stroke-opacity="0.512"/>
<path d="M955.649 2778.94L1201.08 2792.44L1107.54 3019.75L955.649 2778.94Z" stroke="white" stroke-opacity="0.512"/>
<path d="M1180.65 2422.94L1426.08 2436.44L1332.54 2663.75L1180.65 2422.94Z" stroke="white" stroke-opacity="0.512"/>
<path d="M793.914 2636.29L842.174 2637.71L822.658 2681.87L793.914 2636.29Z" stroke="white" stroke-opacity="0.512"/>
<path d="M281.649 2170.94L527.084 2184.44L433.54 2411.75L281.649 2170.94Z" stroke="white" stroke-opacity="0.512"/>
<path d="M439.552 2484.37L578.898 2482.16L516.869 2606.95L439.552 2484.37Z" stroke="white" stroke-opacity="0.512"/>
<path d="M853.693 1998.41L947.339 1997.07L905.788 2081L853.693 1998.41Z" stroke="white" stroke-opacity="0.512"/>
<path d="M2159.36 3151.79L1914.03 3136.5L2009.22 2909.87L2159.36 3151.79Z" stroke="white" stroke-opacity="0.512"/>
<path d="M2609.52 2966.64L2465.54 2965.18L2528.13 2835.51L2609.52 2966.64Z" stroke="white" stroke-opacity="0.512"/>
<path d="M2218.87 2261.91L2007.59 2241.01L2082.63 2042.4L2218.87 2261.91Z" stroke="white" stroke-opacity="0.512"/>
<path d="M2976.09 2265.55L2843.34 2244.15L2883.08 2115.68L2976.09 2265.55Z" stroke="white" stroke-opacity="0.512"/>
<path d="M2764.99 2738.52L2565.6 2714.98L2632.99 2525.84L2764.99 2738.52Z" stroke="white" stroke-opacity="0.512"/>
<path d="M2294.61 2875.41L2247.56 2871.27L2264.74 2827.28L2294.61 2875.41Z" stroke="white" stroke-opacity="0.512"/>
<path d="M3275.46 2814.22L3076.06 2790.67L3143.46 2601.54L3275.46 2814.22Z" stroke="white" stroke-opacity="0.512"/>
<path d="M2428.87 2509.63L2365.2 2501.25L2385.95 2440.48L2428.87 2509.63Z" stroke="white" stroke-opacity="0.512"/>
<path d="M1855.36 2460.57L1610.03 2445.28L1705.21 2218.66L1855.36 2460.57Z" stroke="white" stroke-opacity="0.512"/>
<path d="M3663.8 3096.68L3418.47 3081.4L3513.65 2854.77L3663.8 3096.68Z" stroke="white" stroke-opacity="0.512"/>
<path d="M3437.27 2478.02L3191.94 2462.74L3287.13 2236.11L3437.27 2478.02Z" stroke="white" stroke-opacity="0.512"/>
<path d="M2943.95 2415.7L2838.94 2406.41L2877.22 2308.18L2943.95 2415.7Z" stroke="white" stroke-opacity="0.512"/>
<path d="M2547.34 2327.57L2302.01 2312.29L2397.19 2085.66L2547.34 2327.57Z" stroke="white" stroke-opacity="0.512"/>
<path d="M2319.77 2681.94L2074.43 2666.65L2169.62 2440.02L2319.77 2681.94Z" stroke="white" stroke-opacity="0.512"/>
<path d="M2708.04 2471.38L2659.79 2469.62L2679.62 2425.6L2708.04 2471.38Z" stroke="white" stroke-opacity="0.512"/>
<path d="M3216.92 2940.44L2971.59 2925.16L3066.77 2698.53L3216.92 2940.44Z" stroke="white" stroke-opacity="0.512"/>
<path d="M3061.29 2625.87L2921.93 2627.08L2984.86 2502.73L3061.29 2625.87Z" stroke="white" stroke-opacity="0.512"/>
<path d="M2643.64 3108.82L2549.98 3109.48L2592.14 3025.85L2643.64 3108.82Z" stroke="white" stroke-opacity="0.512"/>
<path d="M3633.36 2844.79L3388.03 2829.5L3483.22 2602.87L3633.36 2844.79Z" stroke="white" stroke-opacity="0.512"/>
<path d="M4083.52 2659.64L3939.54 2658.18L4002.13 2528.51L4083.52 2659.64Z" stroke="white" stroke-opacity="0.512"/>
<path d="M3692.87 1954.91L3481.59 1934.01L3556.63 1735.4L3692.87 1954.91Z" stroke="white" stroke-opacity="0.512"/>
<path d="M4450.09 1958.55L4317.34 1937.15L4357.08 1808.68L4450.09 1958.55Z" stroke="white" stroke-opacity="0.512"/>
<path d="M4238.99 2431.52L4039.6 2407.98L4106.99 2218.84L4238.99 2431.52Z" stroke="white" stroke-opacity="0.512"/>
<path d="M3768.61 2568.41L3721.56 2564.27L3738.74 2520.28L3768.61 2568.41Z" stroke="white" stroke-opacity="0.512"/>
<path d="M4749.46 2507.22L4550.06 2483.67L4617.46 2294.54L4749.46 2507.22Z" stroke="white" stroke-opacity="0.512"/>
<path d="M3902.87 2202.63L3839.2 2194.25L3859.95 2133.48L3902.87 2202.63Z" stroke="white" stroke-opacity="0.512"/>
<path d="M3329.36 2153.57L3084.03 2138.28L3179.21 1911.66L3329.36 2153.57Z" stroke="white" stroke-opacity="0.512"/>
<path d="M4417.95 2108.7L4312.94 2099.41L4351.22 2001.18L4417.95 2108.7Z" stroke="white" stroke-opacity="0.512"/>
<path d="M4021.34 2020.57L3776.01 2005.29L3871.19 1778.66L4021.34 2020.57Z" stroke="white" stroke-opacity="0.512"/>
<path d="M3793.77 2374.94L3548.43 2359.65L3643.62 2133.02L3793.77 2374.94Z" stroke="white" stroke-opacity="0.512"/>
<path d="M4182.04 2164.38L4133.79 2162.62L4153.62 2118.6L4182.04 2164.38Z" stroke="white" stroke-opacity="0.512"/>
<path d="M4690.92 2633.44L4445.59 2618.16L4540.77 2391.53L4690.92 2633.44Z" stroke="white" stroke-opacity="0.512"/>
<path d="M4535.29 2318.87L4395.93 2320.08L4458.86 2195.73L4535.29 2318.87Z" stroke="white" stroke-opacity="0.512"/>
<path d="M4117.64 2801.82L4023.98 2802.48L4066.14 2718.85L4117.64 2801.82Z" stroke="white" stroke-opacity="0.512"/>
<path d="M1335.65 2928.94L1581.08 2942.44L1487.54 3169.75L1335.65 2928.94Z" stroke="white" stroke-opacity="0.512"/>
<path d="M886.839 3117.34L1030.83 3117.75L969.173 3247.88L886.839 3117.34Z" stroke="white" stroke-opacity="0.512"/>
<path d="M1282.59 3819.22L1494.01 3838.59L1420.41 4037.74L1282.59 3819.22Z" stroke="white" stroke-opacity="0.512"/>
<path d="M525.353 3821.07L658.261 3841.51L619.447 3970.25L525.353 3821.07Z" stroke="white" stroke-opacity="0.512"/>
<path d="M733.023 3346.58L932.585 3368.68L866.559 3558.29L733.023 3346.58Z" stroke="white" stroke-opacity="0.512"/>
<path d="M1202.41 3206.29L1249.48 3210.08L1232.62 3254.19L1202.41 3206.29Z" stroke="white" stroke-opacity="0.512"/>
<path d="M222.023 3274.58L421.585 3296.68L355.559 3486.29L222.023 3274.58Z" stroke="white" stroke-opacity="0.512"/>
<path d="M1070.8 3573.03L1134.52 3580.95L1114.22 3641.86L1070.8 3573.03Z" stroke="white" stroke-opacity="0.512"/>
<path d="M1644.65 3617.94L1890.08 3631.44L1796.54 3858.75L1644.65 3617.94Z" stroke="white" stroke-opacity="0.512"/>
<path d="M-168.351 2994.94L77.0843 3008.44L-16.4601 3235.75L-168.351 2994.94Z" stroke="white" stroke-opacity="0.512"/>
<path d="M62.6492 3611.94L308.084 3625.44L214.54 3852.75L62.6492 3611.94Z" stroke="white" stroke-opacity="0.512"/>
<path d="M556.411 3670.69L661.487 3679.22L623.918 3777.72L556.411 3670.69Z" stroke="white" stroke-opacity="0.512"/>
<path d="M953.649 3755.94L1199.08 3769.44L1105.54 3996.75L953.649 3755.94Z" stroke="white" stroke-opacity="0.512"/>
<path d="M1178.65 3399.94L1424.08 3413.44L1330.54 3640.75L1178.65 3399.94Z" stroke="white" stroke-opacity="0.512"/>
<path d="M791.914 3613.29L840.174 3614.71L820.658 3658.87L791.914 3613.29Z" stroke="white" stroke-opacity="0.512"/>
<path d="M279.649 3147.94L525.084 3161.44L431.54 3388.75L279.649 3147.94Z" stroke="white" stroke-opacity="0.512"/>
<path d="M437.552 3461.37L576.898 3459.16L514.869 3583.95L437.552 3461.37Z" stroke="white" stroke-opacity="0.512"/>
<path d="M851.693 2975.41L945.339 2974.07L903.788 3058L851.693 2975.41Z" stroke="white" stroke-opacity="0.512"/>
<path d="M2157.36 4128.79L1912.03 4113.5L2007.22 3886.87L2157.36 4128.79Z" stroke="white" stroke-opacity="0.512"/>
<path d="M2607.52 3943.64L2463.54 3942.18L2526.13 3812.51L2607.52 3943.64Z" stroke="white" stroke-opacity="0.512"/>
<path d="M2216.87 3238.91L2005.59 3218.01L2080.63 3019.4L2216.87 3238.91Z" stroke="white" stroke-opacity="0.512"/>
<path d="M2974.09 3242.55L2841.34 3221.15L2881.08 3092.68L2974.09 3242.55Z" stroke="white" stroke-opacity="0.512"/>
<path d="M2762.99 3715.52L2563.6 3691.98L2630.99 3502.84L2762.99 3715.52Z" stroke="white" stroke-opacity="0.512"/>
<path d="M2292.61 3852.41L2245.56 3848.27L2262.74 3804.28L2292.61 3852.41Z" stroke="white" stroke-opacity="0.512"/>
<path d="M3273.46 3791.22L3074.06 3767.67L3141.46 3578.54L3273.46 3791.22Z" stroke="white" stroke-opacity="0.512"/>
<path d="M2426.87 3486.63L2363.2 3478.25L2383.95 3417.48L2426.87 3486.63Z" stroke="white" stroke-opacity="0.512"/>
<path d="M1853.36 3437.57L1608.03 3422.28L1703.21 3195.66L1853.36 3437.57Z" stroke="white" stroke-opacity="0.512"/>
<path d="M3661.8 4073.68L3416.47 4058.4L3511.65 3831.77L3661.8 4073.68Z" stroke="white" stroke-opacity="0.512"/>
<path d="M3435.27 3455.02L3189.94 3439.74L3285.13 3213.11L3435.27 3455.02Z" stroke="white" stroke-opacity="0.512"/>
<path d="M2941.95 3392.7L2836.94 3383.41L2875.22 3285.18L2941.95 3392.7Z" stroke="white" stroke-opacity="0.512"/>
<path d="M2545.34 3304.57L2300.01 3289.29L2395.19 3062.66L2545.34 3304.57Z" stroke="white" stroke-opacity="0.512"/>
<path d="M2317.77 3658.94L2072.43 3643.65L2167.62 3417.02L2317.77 3658.94Z" stroke="white" stroke-opacity="0.512"/>
<path d="M2706.04 3448.38L2657.79 3446.62L2677.62 3402.6L2706.04 3448.38Z" stroke="white" stroke-opacity="0.512"/>
<path d="M3214.92 3917.44L2969.59 3902.16L3064.77 3675.53L3214.92 3917.44Z" stroke="white" stroke-opacity="0.512"/>
<path d="M3059.29 3602.87L2919.93 3604.08L2982.86 3479.73L3059.29 3602.87Z" stroke="white" stroke-opacity="0.512"/>
<path d="M2641.64 4085.82L2547.98 4086.48L2590.14 4002.85L2641.64 4085.82Z" stroke="white" stroke-opacity="0.512"/>
<path d="M3631.36 3821.79L3386.03 3806.5L3481.22 3579.87L3631.36 3821.79Z" stroke="white" stroke-opacity="0.512"/>
<path d="M4081.52 3636.64L3937.54 3635.18L4000.13 3505.51L4081.52 3636.64Z" stroke="white" stroke-opacity="0.512"/>
<path d="M3690.87 2931.91L3479.59 2911.01L3554.63 2712.4L3690.87 2931.91Z" stroke="white" stroke-opacity="0.512"/>
<path d="M4448.09 2935.55L4315.34 2914.15L4355.08 2785.68L4448.09 2935.55Z" stroke="white" stroke-opacity="0.512"/>
<path d="M4236.99 3408.52L4037.6 3384.98L4104.99 3195.84L4236.99 3408.52Z" stroke="white" stroke-opacity="0.512"/>
<path d="M3766.61 3545.41L3719.56 3541.27L3736.74 3497.28L3766.61 3545.41Z" stroke="white" stroke-opacity="0.512"/>
<path d="M4747.46 3484.22L4548.06 3460.67L4615.46 3271.54L4747.46 3484.22Z" stroke="white" stroke-opacity="0.512"/>
<path d="M3900.87 3179.63L3837.2 3171.25L3857.95 3110.48L3900.87 3179.63Z" stroke="white" stroke-opacity="0.512"/>
<path d="M3327.36 3130.57L3082.03 3115.28L3177.21 2888.66L3327.36 3130.57Z" stroke="white" stroke-opacity="0.512"/>
<path d="M4415.95 3085.7L4310.94 3076.41L4349.22 2978.18L4415.95 3085.7Z" stroke="white" stroke-opacity="0.512"/>
<path d="M4019.34 2997.57L3774.01 2982.29L3869.19 2755.66L4019.34 2997.57Z" stroke="white" stroke-opacity="0.512"/>
<path d="M3791.77 3351.94L3546.43 3336.65L3641.62 3110.02L3791.77 3351.94Z" stroke="white" stroke-opacity="0.512"/>
<path d="M4180.04 3141.38L4131.79 3139.62L4151.62 3095.6L4180.04 3141.38Z" stroke="white" stroke-opacity="0.512"/>
<path d="M4688.92 3610.44L4443.59 3595.16L4538.77 3368.53L4688.92 3610.44Z" stroke="white" stroke-opacity="0.512"/>
<path d="M4533.29 3295.87L4393.93 3297.08L4456.86 3172.73L4533.29 3295.87Z" stroke="white" stroke-opacity="0.512"/>
<path d="M4115.64 3778.82L4021.98 3779.48L4064.14 3695.85L4115.64 3778.82Z" stroke="white" stroke-opacity="0.512"/>
<path d="M1264.65 3921.94L1510.08 3935.44L1416.54 4162.75L1264.65 3921.94Z" stroke="white" stroke-opacity="0.512"/>
<path d="M815.839 4110.34L959.83 4110.75L898.173 4240.88L815.839 4110.34Z" stroke="white" stroke-opacity="0.512"/>
<path d="M1211.59 4812.22L1423.01 4831.59L1349.41 5030.74L1211.59 4812.22Z" stroke="white" stroke-opacity="0.512"/>
<path d="M454.353 4814.07L587.261 4834.51L548.447 4963.25L454.353 4814.07Z" stroke="white" stroke-opacity="0.512"/>
<path d="M662.023 4339.58L861.585 4361.68L795.559 4551.29L662.023 4339.58Z" stroke="white" stroke-opacity="0.512"/>
<path d="M1131.41 4199.29L1178.48 4203.08L1161.62 4247.19L1131.41 4199.29Z" stroke="white" stroke-opacity="0.512"/>
<path d="M151.023 4267.58L350.585 4289.68L284.559 4479.29L151.023 4267.58Z" stroke="white" stroke-opacity="0.512"/>
<path d="M999.8 4566.03L1063.52 4573.95L1043.22 4634.86L999.8 4566.03Z" stroke="white" stroke-opacity="0.512"/>
<path d="M1573.65 4610.94L1819.08 4624.44L1725.54 4851.75L1573.65 4610.94Z" stroke="white" stroke-opacity="0.512"/>
<path d="M-239.351 3987.94L6.08431 4001.44L-87.4601 4228.75L-239.351 3987.94Z" stroke="white" stroke-opacity="0.512"/>
<path d="M-8.35076 4604.94L237.084 4618.44L143.54 4845.75L-8.35076 4604.94Z" stroke="white" stroke-opacity="0.512"/>
<path d="M485.411 4663.69L590.487 4672.22L552.918 4770.72L485.411 4663.69Z" stroke="white" stroke-opacity="0.512"/>
<path d="M882.649 4748.94L1128.08 4762.44L1034.54 4989.75L882.649 4748.94Z" stroke="white" stroke-opacity="0.512"/>
<path d="M1107.65 4392.94L1353.08 4406.44L1259.54 4633.75L1107.65 4392.94Z" stroke="white" stroke-opacity="0.512"/>
<path d="M720.914 4606.29L769.174 4607.71L749.658 4651.87L720.914 4606.29Z" stroke="white" stroke-opacity="0.512"/>
<path d="M208.649 4140.94L454.084 4154.44L360.54 4381.75L208.649 4140.94Z" stroke="white" stroke-opacity="0.512"/>
<path d="M366.552 4454.37L505.898 4452.16L443.869 4576.95L366.552 4454.37Z" stroke="white" stroke-opacity="0.512"/>
<path d="M780.693 3968.41L874.339 3967.07L832.788 4051L780.693 3968.41Z" stroke="white" stroke-opacity="0.512"/>
<path d="M2086.36 5121.79L1841.03 5106.5L1936.22 4879.87L2086.36 5121.79Z" stroke="white" stroke-opacity="0.512"/>
<path d="M2536.52 4936.64L2392.54 4935.18L2455.13 4805.51L2536.52 4936.64Z" stroke="white" stroke-opacity="0.512"/>
<path d="M2145.87 4231.91L1934.59 4211.01L2009.63 4012.4L2145.87 4231.91Z" stroke="white" stroke-opacity="0.512"/>
<path d="M2903.09 4235.55L2770.34 4214.15L2810.08 4085.68L2903.09 4235.55Z" stroke="white" stroke-opacity="0.512"/>
<path d="M2691.99 4708.52L2492.6 4684.98L2559.99 4495.84L2691.99 4708.52Z" stroke="white" stroke-opacity="0.512"/>
<path d="M2221.61 4845.41L2174.56 4841.27L2191.74 4797.28L2221.61 4845.41Z" stroke="white" stroke-opacity="0.512"/>
<path d="M3202.46 4784.22L3003.06 4760.67L3070.46 4571.54L3202.46 4784.22Z" stroke="white" stroke-opacity="0.512"/>
<path d="M2355.87 4479.63L2292.2 4471.25L2312.95 4410.48L2355.87 4479.63Z" stroke="white" stroke-opacity="0.512"/>
<path d="M1782.36 4430.57L1537.03 4415.28L1632.21 4188.65L1782.36 4430.57Z" stroke="white" stroke-opacity="0.512"/>
<path d="M3590.8 5066.68L3345.47 5051.4L3440.65 4824.77L3590.8 5066.68Z" stroke="white" stroke-opacity="0.512"/>
<path d="M3364.27 4448.02L3118.94 4432.74L3214.13 4206.11L3364.27 4448.02Z" stroke="white" stroke-opacity="0.512"/>
<path d="M2870.95 4385.7L2765.94 4376.41L2804.22 4278.18L2870.95 4385.7Z" stroke="white" stroke-opacity="0.512"/>
<path d="M2474.34 4297.57L2229.01 4282.29L2324.19 4055.66L2474.34 4297.57Z" stroke="white" stroke-opacity="0.512"/>
<path d="M2246.77 4651.94L2001.43 4636.65L2096.62 4410.02L2246.77 4651.94Z" stroke="white" stroke-opacity="0.512"/>
<path d="M2635.04 4441.38L2586.79 4439.62L2606.62 4395.6L2635.04 4441.38Z" stroke="white" stroke-opacity="0.512"/>
<path d="M3143.92 4910.44L2898.59 4895.16L2993.77 4668.53L3143.92 4910.44Z" stroke="white" stroke-opacity="0.512"/>
<path d="M2988.29 4595.87L2848.93 4597.08L2911.86 4472.73L2988.29 4595.87Z" stroke="white" stroke-opacity="0.512"/>
<path d="M2570.64 5078.82L2476.99 5079.48L2519.14 4995.85L2570.64 5078.82Z" stroke="white" stroke-opacity="0.512"/>
<path d="M3560.36 4814.79L3315.03 4799.5L3410.22 4572.87L3560.36 4814.79Z" stroke="white" stroke-opacity="0.512"/>
<path d="M4010.52 4629.64L3866.54 4628.18L3929.13 4498.51L4010.52 4629.64Z" stroke="white" stroke-opacity="0.512"/>
<path d="M3619.87 3924.91L3408.59 3904.01L3483.63 3705.4L3619.87 3924.91Z" stroke="white" stroke-opacity="0.512"/>
<path d="M4377.09 3928.55L4244.34 3907.15L4284.08 3778.68L4377.09 3928.55Z" stroke="white" stroke-opacity="0.512"/>
<path d="M4165.99 4401.52L3966.6 4377.98L4033.99 4188.84L4165.99 4401.52Z" stroke="white" stroke-opacity="0.512"/>
<path d="M3695.61 4538.41L3648.56 4534.27L3665.74 4490.28L3695.61 4538.41Z" stroke="white" stroke-opacity="0.512"/>
<path d="M4676.46 4477.22L4477.06 4453.67L4544.46 4264.54L4676.46 4477.22Z" stroke="white" stroke-opacity="0.512"/>
<path d="M3829.87 4172.63L3766.2 4164.25L3786.95 4103.48L3829.87 4172.63Z" stroke="white" stroke-opacity="0.512"/>
<path d="M3256.36 4123.57L3011.03 4108.28L3106.21 3881.66L3256.36 4123.57Z" stroke="white" stroke-opacity="0.512"/>
<path d="M4344.95 4078.7L4239.94 4069.41L4278.22 3971.18L4344.95 4078.7Z" stroke="white" stroke-opacity="0.512"/>
<path d="M3948.34 3990.57L3703.01 3975.29L3798.19 3748.66L3948.34 3990.57Z" stroke="white" stroke-opacity="0.512"/>
<path d="M3720.77 4344.94L3475.43 4329.65L3570.62 4103.02L3720.77 4344.94Z" stroke="white" stroke-opacity="0.512"/>
<path d="M4109.04 4134.38L4060.79 4132.62L4080.62 4088.6L4109.04 4134.38Z" stroke="white" stroke-opacity="0.512"/>
<path d="M4617.92 4603.44L4372.59 4588.16L4467.77 4361.53L4617.92 4603.44Z" stroke="white" stroke-opacity="0.512"/>
<path d="M4462.29 4288.87L4322.93 4290.08L4385.86 4165.73L4462.29 4288.87Z" stroke="white" stroke-opacity="0.512"/>
<path d="M4044.64 4771.82L3950.98 4772.48L3993.14 4688.85L4044.64 4771.82Z" stroke="white" stroke-opacity="0.512"/>
<path d="M1193.65 4914.94L1439.08 4928.44L1345.54 5155.75L1193.65 4914.94Z" stroke="white" stroke-opacity="0.512"/>
<path d="M744.839 5103.34L888.83 5103.75L827.173 5233.88L744.839 5103.34Z" stroke="white" stroke-opacity="0.512"/>
<path d="M1060.41 5192.29L1107.48 5196.08L1090.62 5240.19L1060.41 5192.29Z" stroke="white" stroke-opacity="0.512"/>
<path d="M80.0231 5260.58L279.585 5282.68L213.559 5472.29L80.0231 5260.58Z" stroke="white" stroke-opacity="0.512"/>
<path d="M-310.351 4980.94L-64.9157 4994.44L-158.46 5221.75L-310.351 4980.94Z" stroke="white" stroke-opacity="0.512"/>
<path d="M137.649 5133.94L383.084 5147.44L289.54 5374.75L137.649 5133.94Z" stroke="white" stroke-opacity="0.512"/>
<path d="M709.693 4961.41L803.339 4960.07L761.788 5044L709.693 4961.41Z" stroke="white" stroke-opacity="0.512"/>
<path d="M2074.87 5224.91L1863.59 5204.01L1938.63 5005.4L2074.87 5224.91Z" stroke="white" stroke-opacity="0.512"/>
<path d="M2832.09 5228.55L2699.34 5207.15L2739.08 5078.68L2832.09 5228.55Z" stroke="white" stroke-opacity="0.512"/>
<path d="M1711.36 5423.57L1466.03 5408.28L1561.21 5181.65L1711.36 5423.57Z" stroke="white" stroke-opacity="0.512"/>
<path d="M3293.27 5441.02L3047.94 5425.74L3143.13 5199.11L3293.27 5441.02Z" stroke="white" stroke-opacity="0.512"/>
<path d="M2403.34 5290.57L2158.01 5275.29L2253.19 5048.66L2403.34 5290.57Z" stroke="white" stroke-opacity="0.512"/>
<path d="M3548.87 4917.91L3337.59 4897.01L3412.63 4698.4L3548.87 4917.91Z" stroke="white" stroke-opacity="0.512"/>
<path d="M4306.09 4921.55L4173.34 4900.15L4213.08 4771.68L4306.09 4921.55Z" stroke="white" stroke-opacity="0.512"/>
<path d="M4094.99 5394.52L3895.6 5370.98L3962.99 5181.84L4094.99 5394.52Z" stroke="white" stroke-opacity="0.512"/>
<path d="M3758.87 5165.63L3695.2 5157.25L3715.95 5096.48L3758.87 5165.63Z" stroke="white" stroke-opacity="0.512"/>
<path d="M3185.36 5116.57L2940.03 5101.28L3035.21 4874.65L3185.36 5116.57Z" stroke="white" stroke-opacity="0.512"/>
<path d="M4767.27 5134.02L4521.94 5118.74L4617.13 4892.11L4767.27 5134.02Z" stroke="white" stroke-opacity="0.512"/>
<path d="M4273.95 5071.7L4168.94 5062.41L4207.22 4964.18L4273.95 5071.7Z" stroke="white" stroke-opacity="0.512"/>
<path d="M3877.34 4983.57L3632.01 4968.29L3727.19 4741.66L3877.34 4983.57Z" stroke="white" stroke-opacity="0.512"/>
<path d="M3649.77 5337.94L3404.43 5322.65L3499.62 5096.02L3649.77 5337.94Z" stroke="white" stroke-opacity="0.512"/>
<path d="M4038.04 5127.38L3989.79 5125.62L4009.62 5081.6L4038.04 5127.38Z" stroke="white" stroke-opacity="0.512"/>
<path d="M4391.29 5281.87L4251.93 5283.08L4314.86 5158.73L4391.29 5281.87Z" stroke="white" stroke-opacity="0.512"/>
</g>
<defs>
<clipPath id="clip0">
<rect width="4486" height="5236" fill="white"/>
</clipPath>
</defs>
</svg>
